<svg width="100%" height="100%" viewBox="0 0 691 241" fill="none" xmlns="http://www.w3.org/2000/svg">
<path d="M175.079 112.746C170.145 96.2858 163.074 72.697 148.106 50.4999C247.633 50.4982 333.372 50.4993 425.657 50.5005C461.862 50.501 499.075 50.5015 538.524 50.5018C523.645 73.3632 517.266 97.698 512.913 114.306C512.617 115.434 512.331 116.528 512.052 117.582C504.453 146.281 500.434 156.121 492.892 162.61C460.112 190.809 429.128 190.727 362.659 190.552C357.187 190.537 351.474 190.522 345.5 190.522C336.488 190.522 328.113 190.581 320.29 190.636C259.751 191.06 232.215 191.253 197.658 162.227C189.159 155.088 184.628 144.38 176.018 115.872C175.713 114.862 175.4 113.819 175.079 112.746Z" stroke="#FF4400" stroke-width="100"/>
</svg>
